<svg width="136" height="135" xmlns="http://www.w3.org/2000/svg" xmlns:xlink="http://www.w3.org/1999/xlink" xml:space="preserve" overflow="hidden"><defs><clipPath id="clip0"><rect x="44" y="29" width="136" height="135"/></clipPath><clipPath id="clip1"><path d="M99.1968 30.3795 178.664 84.2403 124.803 163.707 45.3361 109.847Z" fill-rule="evenodd" clip-rule="evenodd"/></clipPath><clipPath id="clip2"><path d="M99.1968 30.3795 178.664 84.2403 124.803 163.707 45.3361 109.847Z" fill-rule="evenodd" clip-rule="evenodd"/></clipPath><clipPath id="clip3"><path d="M99.1968 30.3795 178.664 84.2403 124.803 163.707 45.3361 109.847Z" fill-rule="evenodd" clip-rule="evenodd"/></clipPath></defs><g clip-path="url(#clip0)" transform="translate(-44 -29)"><g clip-path="url(#clip1)"><g clip-path="url(#clip2)"><g clip-path="url(#clip3)"><path d="M130.211 109.387C136.607 99.9498 133.682 90.7192 129.558 82.3669 138.9 83.0208 148.501 82.4008 154.897 72.9641L149.931 69.5978C148.921 71.0878 147.719 72.3267 146.463 73.2879L121.299 56.232C121.726 54.7098 122.432 53.1343 123.442 51.6442L118.475 48.278C112.079 57.7147 115.06 66.8626 119.128 75.2976 109.842 74.5609 100.185 75.2637 93.7888 84.7004 87.3367 94.2199 90.2616 103.451 94.3858 111.803 85.0999 111.066 75.4986 111.686 69.1026 121.123L74.0693 124.489C75.1353 122.916 76.2813 121.76 77.5368 120.799L102.701 137.855C102.274 139.377 101.624 140.87 100.558 142.443L105.525 145.809C111.921 136.372 108.94 127.224 104.816 118.872 114.102 119.609 123.759 118.906 130.211 109.387ZM98.7555 88.0667C99.7654 86.5767 100.967 85.3378 102.223 84.3766L127.47 101.489C127.043 103.011 126.337 104.586 125.327 106.076 124.317 107.566 123.115 108.805 121.86 109.766L96.6125 92.6544C97.0401 91.1322 97.7456 89.5567 98.7555 88.0667ZM121.078 63.3307 139.869 76.0665C135.841 76.84 131.157 76.4436 126.168 75.9617 123.955 71.5625 121.851 67.3583 121.078 63.3307ZM122.436 81.6467C124.731 86.102 126.835 90.3062 127.608 94.3338L108.735 81.5419C112.762 80.7684 117.503 81.082 122.436 81.6467ZM97.6933 118.152C100.045 122.524 102.066 126.673 102.839 130.7L84.1314 118.02C88.159 117.247 92.7606 117.587 97.6933 118.152ZM101.508 112.523C99.1299 108.012 97.0264 103.807 96.309 99.697L115.348 112.601C111.264 113.457 106.58 113.061 101.508 112.523Z" fill="#000000" fill-rule="nonzero" fill-opacity="1"/></g></g></g></g></svg>